<?xml version="1.0" encoding="UTF-8"?>
<svg id="Layer_1" data-name="Layer 1" xmlns="http://www.w3.org/2000/svg" viewBox="0 0 32 32">
  <defs>
    <style>
      .cls-1 {
        fill: #ff5350;
      }
    </style>
  </defs>
  <path class="cls-1" d="M7.89,20.58l-4.83,4.83C-1.02,19.82-1.02,12.18,3.06,6.59l4.83,4.83c-1.63,2.84-1.63,6.31,0,9.16Z"/>
  <path class="cls-1" d="M25.41,3.06l-4.84,4.84c-1.39-.81-2.97-1.22-4.57-1.22s-3.18.41-4.57,1.22L6.59,3.06c5.59-4.08,13.23-4.08,18.82,0Z"/>
  <path class="cls-1" d="M28.94,25.41l-4.84-4.84c1.62-2.84,1.62-6.31,0-9.14l4.84-4.84c4.08,5.59,4.08,13.23,0,18.82Z"/>
  <path class="cls-1" d="M25.41,28.94c-5.59,4.08-13.23,4.08-18.82,0l4.84-4.84c1.39.81,2.96,1.22,4.57,1.22s3.18-.41,4.57-1.22l4.84,4.84Z"/>
  <path class="cls-1" d="M20.57,18.7c-.21.38-.48.73-.81,1.06-.33.33-.68.6-1.06.81-.83.5-1.77.75-2.7.75s-1.87-.25-2.7-.75c-.38-.21-.73-.48-1.06-.81-.33-.33-.6-.68-.81-1.06-1-1.66-1-3.74,0-5.4.21-.38.48-.73.81-1.06.33-.33.68-.6,1.06-.81.83-.5,1.76-.75,2.7-.75s1.87.25,2.7.75c.38.21.73.48,1.06.81.33.33.6.68.81,1.06,1,1.66,1,3.74,0,5.4Z"/>
</svg>