<?xml version="1.0" encoding="UTF-8"?>
<svg id="Layer_1" data-name="Layer 1" xmlns="http://www.w3.org/2000/svg" viewBox="0 0 32 32">
  <defs>
    <style>
      .cls-1 {
        fill: #fff;
      }
    </style>
  </defs>
  <path class="cls-1" d="M28.64,18c-.95,6.12-6.25,10.8-12.64,10.8s-11.69-4.68-12.64-10.8h5.47c.88,3.22,3.81,5.46,7.17,5.46s6.29-2.24,7.17-5.46h5.47Z"/>
  <path class="cls-1" d="M28.64,14h-5.47c-.88-3.22-3.81-5.46-7.17-5.46s-6.29,2.24-7.17,5.46H3.36c.95-6.12,6.25-10.8,12.64-10.8s11.69,4.68,12.64,10.8Z"/>
  <path class="cls-1" d="M20.26,16c0,.37-.05.73-.14,1.06-.46,1.84-2.13,3.19-4.11,3.19s-3.65-1.35-4.11-3.19c-.1-.34-.14-.7-.14-1.06s.05-.73.14-1.06c.46-1.84,2.13-3.19,4.11-3.19s3.65,1.35,4.11,3.19c.1.34.14.7.14,1.06Z"/>
  <path class="cls-1" d="M16,20.26c-1.98,0-3.65-1.35-4.11-3.19-.1-.34-.14-.7-.14-1.06s.05-.73.14-1.06c.46-1.84,2.13-3.19,4.11-3.19s3.65,1.35,4.11,3.19c.1.34.14.7.14,1.06s-.05.73-.14,1.06c-.46,1.84-2.13,3.19-4.11,3.19Z"/>
</svg>