<?xml version="1.0" encoding="UTF-8"?>
<svg id="Layer_1" data-name="Layer 1" xmlns="http://www.w3.org/2000/svg" viewBox="0 0 32 32">
  <defs>
    <style>
      .cls-1 {
        fill: #ff5350;
      }
    </style>
  </defs>
  <path class="cls-1" d="M31.58,12.38c1.77,7.54-2.17,15.45-9.57,18.45s-15.74.07-19.71-6.58l6.34-2.57c2.53,3.31,6.97,4.53,10.87,2.95s6.23-5.55,5.74-9.69l6.34-2.57Z"/>
  <path class="cls-1" d="M29.7,7.75l-6.34,2.57c-2.53-3.31-6.97-4.53-10.87-2.95s-6.23,5.55-5.74,9.69L.42,19.62C-1.35,12.08,2.58,4.17,9.99,1.17s15.74-.07,19.71,6.58Z"/>
  <path class="cls-1" d="M20.93,14c.17.43.29.87.33,1.3.33,2.35-.97,4.7-3.26,5.63s-4.86.15-6.26-1.77c-.27-.34-.49-.74-.67-1.16s-.29-.87-.33-1.3c-.33-2.35.97-4.7,3.26-5.63s4.86-.15,6.26,1.77c.27.34.49.74.67,1.16Z"/>
  <path class="cls-1" d="M18,20.93c-2.3.93-4.86.15-6.26-1.77-.27-.34-.49-.74-.67-1.16s-.29-.87-.33-1.3c-.33-2.35.97-4.7,3.26-5.63s4.86-.15,6.26,1.77c.27.34.49.74.67,1.16s.29.87.33,1.3c.33,2.35-.97,4.7-3.26,5.63Z"/>
</svg>